<svg id="Calque_1" xmlns="http://www.w3.org/2000/svg" width="565" height="200" viewBox="0 0 565 200"><path fill="#201D1E" d="M62.44 156.67l-6.933-92.834-11.553 8.472 4.39 83.513z"/><path fill="#201D1E" d="M49.065 76.833l-18.72 21.52 1.863 41.74 16.857 4.943M129.35 74.234L55.306 63.99l6.932 92.68 73.937-16.944-6.828-65.492zm-60.042 62.87l-5.47-64.257 58.42 7.283 5.387 49.397-58.337 7.576z"/><path fill="#FFF" d="M69.308 137.103l-5.47-64.256 58.42 7.283 5.387 49.397-58.337 7.576z"/><path fill="#201D1E" d="M80.562 159.1l12.094-15.812 20.59-1.945 6.93 17.758"/><path fill="#45C2C5" d="M501.25 82.353L86.884 99.17l-1.228-13.948L522.75 28.5z"/><path fill="#fc3" d="M506.64 111.62L88.054 112l-1.168-13.103L533.75 65.5z"/><path fill="#f79838" d="M491.75 163.5L89.11 125.044l-1.185-13.88 445.028-4.47z"/><g class="epicgamejam" fill="#201D1E"><path d="M111.02 90.66l.412 5.763-8.095.25.48 6.703 7.24-.723.58 5.524-6.478.463.37 5.19 8.48-.606.415 5.803-14.155.808c-.125-3.84-.325-7.7-.603-11.582-.384-5.38-.916-10.8-1.593-16.256 3.068-.342 7.383-.788 12.946-1.336M117.054 121.44c-.188-3.86-.425-7.806-.714-11.834-.442-6.183-1.003-12.578-1.682-19.187 2.48-.532 4.68-.866 6.6-1.003 3.018-.216 5.32.06 6.907.832 2.457 1.193 3.836 3.9 4.138 8.12l.052.724c.184 4.642-.652 7.68-2.507 9.115-1.856 1.435-4.21 2.3-7.06 2.59.017.457.044.926.078 1.41.174 2.432.503 5.303.99 8.61l-6.802.62zm3.77-26.337l.923 10.736c2.716-.342 4.242-1.43 4.582-3.266.16-.836.21-1.686.15-2.55-.073-1.013-.295-2.042-.664-3.09-.552-1.536-1.706-2.242-3.465-2.116-.468.033-.977.13-1.525.285M143.597 122.11l-6.27 1.035c-.887-12.403-1.922-24.03-3.106-34.886l7.182-1.126c.634 11.49 1.366 23.147 2.195 34.977M164.687 98.757l-5.608.428-.05-.684c-.282-3.962-1.53-5.862-3.757-5.704-2.378.17-3.305 3.916-2.78 11.233.588 8.246 2.13 12.28 4.627 12.1h.025c2.484-.195 3.584-2.31 3.295-6.34l-.177-2.504 6.27-.448.135 1.898c.6 8.396-2.532 13.037-9.388 13.917-.2.033-.402.054-.605.07-6.492.464-10.184-5.544-11.076-18.023-.874-12.21 2.027-18.552 8.705-19.03 6.276-.45 9.714 3.407 10.298 11.57.034.488.062.995.084 1.517M200.954 96.696l-6.446.518c-.44-4.805-1.833-7.247-4.18-7.327l-.512.037c-2.085.15-3.673 1.643-4.762 4.48-1.094 2.84-1.458 6.78-1.098 11.82l.09 1.25c.517 5.636 2.698 8.318 6.544 8.042 2.65-.19 3.824-2.444 3.515-6.763-.03-.435-.073-.88-.126-1.332l-5.648.49-.173-6.414 14.536-.812.498 6.962-2.895.265c.705 9.89-2.88 15.115-10.762 15.68-7.293.52-11.355-5.035-12.187-16.666-.068-.966-.11-1.982-.13-3.046-.315-13.707 3.525-21.13 11.516-22.274.396-.047.773-.084 1.134-.11 6.688-.478 10.354 3.792 10.998 12.808.055.76.084 1.556.086 2.394M202.98 125.645c2.63-17.962 4.705-33.18 6.227-45.654l11.636-1.016c3.772 12.592 8.085 26.935 12.94 43.03l-7.835 2.186-3.357-11.593-9.66.69-1.7 12.892-8.25-.535zm18.74-21.76c-1.4-4.394-3.543-9.62-6.43-15.68-1.51 5.374-2.717 10.913-3.62 16.62l10.05-.94zM246.18 75.82l10.404 34.534 3.467-32.94 15.464-.935c.253 7.36.65 14.778 1.183 22.255.596 8.334 1.37 16.76 2.317 25.272l-9.81 1.383c-.643-8.99-1.53-19.97-2.662-32.944l-3.394 30.176-10.452 1.463-9.073-31.635 2.19 32.535-8.223 1.168c-.376-7.44-.823-14.822-1.347-22.14-.653-9.126-1.422-18.13-2.307-27.012l12.243-1.18zM306.588 71.34l.783 10.948-15.38.477.912 12.734 13.755-1.374 1.104 10.496-12.31.88.704 9.862 16.115-1.152.788 11.026-26.897 1.535c-.234-7.293-.615-14.63-1.142-22.006-.73-10.225-1.74-20.52-3.028-30.887 5.832-.65 14.032-1.498 24.598-2.54M324.114 106.088l12.17-1.712c.03.902.078 1.755.135 2.562.495 6.913 1.63 11.038 3.41 12.375 1.09.888 2.224 1.288 3.402 1.204.932-.067 1.872-.412 2.826-1.043 2.08-1.364 2.864-5.673 2.345-12.926l-.078-1.07c-.688-7.896-1.945-20.705-3.774-38.43l13.195-1.738c.84 8.696 1.5 16.377 1.976 23.04 1.188 16.588 1.245 26.973.174 31.163-1.51 5.935-4.414 9.758-8.716 11.467-2.577 1.025-5.103 1.627-7.582 1.804-1.673.12-3.334.035-4.972-.252-4.065-.643-7.148-2.44-9.24-5.39-2.1-2.95-3.44-6.135-4.026-9.55-.487-2.866-.854-6.048-1.104-9.552l-.14-1.952zM368.066 135.1c4.143-28.316 7.414-52.307 9.817-71.97l18.342-1.607c5.947 19.852 12.748 42.467 20.405 67.84l-12.353 3.445-5.295-18.276-15.23 1.088-2.68 20.324-13.006-.843zm29.54-34.3c-2.203-6.93-5.583-15.17-10.135-24.723-2.38 8.475-4.28 17.205-5.705 26.2l15.84-1.477zM435.22 58.3l15.953 52.945 5.315-50.5 23.705-1.433c.387 11.285.99 22.656 1.813 34.12.912 12.777 2.1 25.692 3.554 38.745l-15.043 2.12c-.985-13.782-2.345-30.618-4.08-50.507l-5.2 46.262-16.026 2.242-13.91-48.498 3.36 49.88-12.61 1.79c-.576-11.41-1.262-22.727-2.064-33.944-1-13.99-2.18-27.793-3.534-41.41L435.22 58.3z"/></g></svg>